<svg width="36" height="36" viewBox="0 0 36 36" fill="none" xmlns="http://www.w3.org/2000/svg">
<path d="M34.9649 10.9613C34.9457 9.51864 34.6756 8.09036 34.1668 6.74031C33.7256 5.60155 33.0516 4.56736 32.1881 3.7038C31.3245 2.84024 30.2903 2.16631 29.1516 1.72507C27.8189 1.2248 26.4109 0.954296 24.9877 0.925075C23.1554 0.84317 22.5744 0.820312 17.923 0.820312C13.2716 0.820312 12.6754 0.820313 10.8563 0.925075C9.43376 0.954511 8.0265 1.22501 6.69441 1.72507C5.55548 2.16601 4.52112 2.83983 3.65752 3.70342C2.79393 4.56702 2.12011 5.60138 1.67918 6.74031C1.1779 8.07199 0.907982 9.47957 0.881081 10.9022C0.799176 12.7365 0.774414 13.3175 0.774414 17.9689C0.774414 22.6203 0.774414 23.2146 0.881081 25.0355C0.909652 26.4603 1.17822 27.866 1.67918 29.2013C2.12085 30.3399 2.79517 31.3738 3.65905 32.237C4.52294 33.1003 5.55739 33.7738 6.69632 34.2146C8.02476 34.735 9.43226 35.0248 10.8582 35.0717C12.6925 35.1536 13.2735 35.1784 17.9249 35.1784C22.5763 35.1784 23.1725 35.1784 24.9916 35.0717C26.4147 35.0437 27.8227 34.7738 29.1554 34.2736C30.2938 33.8319 31.3278 33.1578 32.1912 32.2943C33.0547 31.4308 33.7289 30.3969 34.1706 29.2584C34.6716 27.9251 34.9401 26.5194 34.9687 25.0927C35.0506 23.2603 35.0754 22.6794 35.0754 18.026C35.0715 13.3746 35.0716 12.7841 34.9649 10.9613ZM17.9116 26.7651C13.0468 26.7651 9.10584 22.8241 9.10584 17.9594C9.10584 13.0946 13.0468 9.15365 17.9116 9.15365C20.247 9.15365 22.4867 10.0814 24.1381 11.7328C25.7895 13.3842 26.7173 15.6239 26.7173 17.9594C26.7173 20.2948 25.7895 22.5345 24.1381 24.1859C22.4867 25.8373 20.247 26.7651 17.9116 26.7651ZM27.0677 10.8813C26.798 10.8815 26.5309 10.8286 26.2817 10.7255C26.0324 10.6224 25.806 10.4711 25.6153 10.2804C25.4245 10.0897 25.2733 9.86324 25.1702 9.614C25.0671 9.36477 25.0142 9.09765 25.0144 8.82793C25.0144 8.55841 25.0675 8.29153 25.1706 8.04252C25.2738 7.79351 25.425 7.56726 25.6155 7.37668C25.8061 7.1861 26.0324 7.03492 26.2814 6.93178C26.5304 6.82864 26.7973 6.77555 27.0668 6.77555C27.3363 6.77555 27.6032 6.82864 27.8522 6.93178C28.1012 7.03492 28.3275 7.1861 28.518 7.37668C28.7086 7.56726 28.8598 7.79351 28.9629 8.04252C29.0661 8.29153 29.1192 8.55841 29.1192 8.82793C29.1192 9.96317 28.2011 10.8813 27.0677 10.8813Z" fill="black"/>
</svg>
