<svg width="39" height="39" viewBox="0 0 39 39" fill="none" xmlns="http://www.w3.org/2000/svg">
<path d="M38.4197 8.02281C37.0628 8.62406 35.6052 9.03031 34.0728 9.21394C35.654 8.26785 36.8369 6.77882 37.4008 5.02469C35.9153 5.90704 34.2895 6.52813 32.5941 6.86094C31.454 5.64359 29.9438 4.83672 28.2981 4.56558C26.6524 4.29445 24.9632 4.57422 23.4928 5.36147C22.0224 6.14872 20.8531 7.3994 20.1663 8.91933C19.4796 10.4393 19.3138 12.1434 19.6948 13.7672C16.6848 13.6161 13.7402 12.8337 11.0521 11.4709C8.36407 10.1081 5.99258 8.19532 4.09159 5.85669C3.44159 6.97794 3.06784 8.27794 3.06784 9.66244C3.06711 10.9088 3.37404 12.1361 3.96139 13.2354C4.54874 14.3347 5.39835 15.272 6.43484 15.9642C5.23278 15.9259 4.05725 15.6011 3.00609 15.0168V15.1143C3.00596 16.8624 3.61064 18.5567 4.71751 19.9097C5.82438 21.2627 7.36526 22.1911 9.07871 22.5373C7.96361 22.8391 6.79451 22.8836 5.65971 22.6673C6.14314 24.1714 7.08483 25.4867 8.35293 26.4291C9.62104 27.3714 11.1521 27.8936 12.7317 27.9226C10.0502 30.0276 6.73853 31.1695 3.32946 31.1644C2.72558 31.1646 2.12221 31.1293 1.52246 31.0588C4.98286 33.2837 9.01101 34.4645 13.125 34.4599C27.0512 34.4599 34.6643 22.9257 34.6643 12.9222C34.6643 12.5972 34.6562 12.2689 34.6416 11.9439C36.1224 10.873 37.4007 9.54689 38.4165 8.02769L38.4197 8.02281V8.02281Z" fill="black"/>
</svg>
