<svg width="35" height="40" viewBox="0 0 35 40" fill="none" xmlns="http://www.w3.org/2000/svg">
<path d="M34.3119 16.4034C30.9391 16.4116 27.649 15.3387 24.9063 13.3362V27.3022C24.9054 29.8889 24.1303 32.4136 22.6847 34.5388C21.239 36.664 19.1918 38.2884 16.8166 39.1947C14.4415 40.1011 11.8517 40.2462 9.39353 39.6106C6.93535 38.9751 4.72598 37.5892 3.06083 35.6384C1.39569 33.6875 0.354131 31.2645 0.0754408 28.6935C-0.203249 26.1225 0.29421 23.526 1.5013 21.2512C2.70839 18.9764 4.56757 17.1317 6.83025 15.9637C9.09293 14.7958 11.6513 14.3603 14.1631 14.7154V21.7399C13.0137 21.3711 11.7794 21.3822 10.6365 21.7716C9.49364 22.161 8.50061 22.9089 7.79926 23.9083C7.0979 24.9077 6.72408 26.1076 6.73118 27.3367C6.73827 28.5658 7.12593 29.7611 7.83878 30.752C8.55163 31.743 9.55322 32.4788 10.7005 32.8545C11.8478 33.2301 13.0822 33.2264 14.2273 32.8438C15.3724 32.4613 16.3697 31.7194 17.0768 30.7242C17.7839 29.729 18.1646 28.5313 18.1645 27.3022V0H24.9063C24.9017 0.580725 24.9494 1.16066 25.0488 1.73247C25.2831 3.00895 25.7702 4.22326 26.4804 5.30113C27.1905 6.37901 28.1088 7.29778 29.1789 8.00124C30.7015 9.02814 32.4866 9.57547 34.3119 9.57508V16.4034Z" fill="black"/>
</svg>
